<svg id="visual" viewBox="0 0 900 600" width="900" height="600" xmlns="http://www.w3.org/2000/svg" xmlns:xlink="http://www.w3.org/1999/xlink" version="1.1"><rect x="0" y="0" width="900" height="600" fill="#13141a"></rect><path d="M0 498L21.5 494.7C43 491.3 86 484.7 128.8 481.7C171.7 478.7 214.3 479.3 257.2 477.2C300 475 343 470 385.8 472C428.7 474 471.3 483 514.2 480.3C557 477.7 600 463.3 642.8 457.3C685.7 451.3 728.3 453.7 771.2 454.7C814 455.7 857 455.3 878.5 455.2L900 455L900 601L878.5 601C857 601 814 601 771.2 601C728.3 601 685.7 601 642.8 601C600 601 557 601 514.2 601C471.3 601 428.7 601 385.8 601C343 601 300 601 257.2 601C214.3 601 171.7 601 128.8 601C86 601 43 601 21.5 601L0 601Z" fill="#fa7268"></path><path d="M0 493L21.5 493C43 493 86 493 128.8 492.7C171.7 492.3 214.3 491.7 257.2 490.7C300 489.7 343 488.3 385.8 490.8C428.7 493.3 471.3 499.7 514.2 498.3C557 497 600 488 642.8 486.7C685.7 485.3 728.3 491.7 771.2 497.3C814 503 857 508 878.5 510.5L900 513L900 601L878.5 601C857 601 814 601 771.2 601C728.3 601 685.7 601 642.8 601C600 601 557 601 514.2 601C471.3 601 428.7 601 385.8 601C343 601 300 601 257.2 601C214.3 601 171.7 601 128.8 601C86 601 43 601 21.5 601L0 601Z" fill="#eb6567"></path><path d="M0 514L21.5 512.5C43 511 86 508 128.8 510.8C171.7 513.7 214.3 522.3 257.2 524.3C300 526.3 343 521.7 385.8 521C428.7 520.3 471.3 523.7 514.2 525.2C557 526.7 600 526.3 642.8 521.2C685.7 516 728.3 506 771.2 500.2C814 494.3 857 492.7 878.5 491.8L900 491L900 601L878.5 601C857 601 814 601 771.2 601C728.3 601 685.7 601 642.8 601C600 601 557 601 514.2 601C471.3 601 428.7 601 385.8 601C343 601 300 601 257.2 601C214.3 601 171.7 601 128.8 601C86 601 43 601 21.5 601L0 601Z" fill="#db5865"></path><path d="M0 529L21.5 531.5C43 534 86 539 128.8 535.5C171.7 532 214.3 520 257.2 519.3C300 518.7 343 529.3 385.8 533.5C428.7 537.7 471.3 535.3 514.2 535.8C557 536.3 600 539.7 642.8 536.2C685.7 532.7 728.3 522.3 771.2 520.8C814 519.3 857 526.7 878.5 530.3L900 534L900 601L878.5 601C857 601 814 601 771.2 601C728.3 601 685.7 601 642.8 601C600 601 557 601 514.2 601C471.3 601 428.7 601 385.8 601C343 601 300 601 257.2 601C214.3 601 171.7 601 128.8 601C86 601 43 601 21.5 601L0 601Z" fill="#cb4c63"></path><path d="M0 535L21.5 535.7C43 536.3 86 537.7 128.8 537.8C171.7 538 214.3 537 257.2 536C300 535 343 534 385.8 537.7C428.7 541.3 471.3 549.7 514.2 552C557 554.3 600 550.7 642.8 547C685.7 543.3 728.3 539.7 771.2 541.3C814 543 857 550 878.5 553.5L900 557L900 601L878.5 601C857 601 814 601 771.2 601C728.3 601 685.7 601 642.8 601C600 601 557 601 514.2 601C471.3 601 428.7 601 385.8 601C343 601 300 601 257.2 601C214.3 601 171.7 601 128.8 601C86 601 43 601 21.5 601L0 601Z" fill="#ba4160"></path><path d="M0 562L21.5 561.8C43 561.7 86 561.3 128.8 562.8C171.7 564.3 214.3 567.7 257.2 565.8C300 564 343 557 385.8 556.8C428.7 556.7 471.3 563.3 514.2 565.7C557 568 600 566 642.8 566.5C685.7 567 728.3 570 771.2 567.3C814 564.7 857 556.3 878.5 552.2L900 548L900 601L878.5 601C857 601 814 601 771.2 601C728.3 601 685.7 601 642.8 601C600 601 557 601 514.2 601C471.3 601 428.7 601 385.8 601C343 601 300 601 257.2 601C214.3 601 171.7 601 128.8 601C86 601 43 601 21.5 601L0 601Z" fill="#a9375d"></path><path d="M0 572L21.5 573.2C43 574.3 86 576.7 128.8 578.2C171.7 579.7 214.3 580.3 257.2 578.7C300 577 343 573 385.8 571.7C428.7 570.3 471.3 571.7 514.2 574.7C557 577.7 600 582.3 642.8 584.5C685.7 586.7 728.3 586.3 771.2 585.5C814 584.7 857 583.3 878.5 582.7L900 582L900 601L878.5 601C857 601 814 601 771.2 601C728.3 601 685.7 601 642.8 601C600 601 557 601 514.2 601C471.3 601 428.7 601 385.8 601C343 601 300 601 257.2 601C214.3 601 171.7 601 128.8 601C86 601 43 601 21.5 601L0 601Z" fill="#972d59"></path></svg>