<svg id="visual" viewBox="0 0 900 600" width="900" height="600" xmlns="http://www.w3.org/2000/svg" xmlns:xlink="http://www.w3.org/1999/xlink" version="1.1"><rect x="0" y="0" width="900" height="600" fill="#001220"></rect><path d="M0 440L18.8 434.3C37.7 428.7 75.3 417.3 112.8 415.5C150.3 413.7 187.7 421.3 225.2 419.5C262.7 417.7 300.3 406.3 337.8 396.8C375.3 387.3 412.7 379.7 450.2 384.8C487.7 390 525.3 408 562.8 410.2C600.3 412.3 637.7 398.7 675.2 392.3C712.7 386 750.3 387 787.8 384.5C825.3 382 862.7 376 881.3 373L900 370L900 601L881.3 601C862.7 601 825.3 601 787.8 601C750.3 601 712.7 601 675.2 601C637.7 601 600.3 601 562.8 601C525.3 601 487.7 601 450.2 601C412.7 601 375.3 601 337.8 601C300.3 601 262.7 601 225.2 601C187.7 601 150.3 601 112.8 601C75.3 601 37.7 601 18.8 601L0 601Z" fill="#071512"></path><path d="M0 471L18.8 468.2C37.7 465.3 75.3 459.7 112.8 455C150.3 450.3 187.7 446.7 225.2 449.7C262.7 452.7 300.3 462.3 337.8 461.8C375.3 461.3 412.7 450.7 450.2 438C487.7 425.3 525.3 410.7 562.8 408.5C600.3 406.3 637.7 416.7 675.2 416.8C712.7 417 750.3 407 787.8 406.7C825.3 406.3 862.7 415.7 881.3 420.3L900 425L900 601L881.3 601C862.7 601 825.3 601 787.8 601C750.3 601 712.7 601 675.2 601C637.7 601 600.3 601 562.8 601C525.3 601 487.7 601 450.2 601C412.7 601 375.3 601 337.8 601C300.3 601 262.7 601 225.2 601C187.7 601 150.3 601 112.8 601C75.3 601 37.7 601 18.8 601L0 601Z" fill="#0f312a"></path><path d="M0 454L18.8 453C37.7 452 75.3 450 112.8 452.5C150.3 455 187.7 462 225.2 467C262.7 472 300.3 475 337.8 478.2C375.3 481.3 412.7 484.7 450.2 484C487.7 483.3 525.3 478.7 562.8 471.7C600.3 464.7 637.7 455.3 675.2 449.2C712.7 443 750.3 440 787.8 443.7C825.3 447.3 862.7 457.7 881.3 462.8L900 468L900 601L881.3 601C862.7 601 825.3 601 787.8 601C750.3 601 712.7 601 675.2 601C637.7 601 600.3 601 562.8 601C525.3 601 487.7 601 450.2 601C412.7 601 375.3 601 337.8 601C300.3 601 262.7 601 225.2 601C187.7 601 150.3 601 112.8 601C75.3 601 37.7 601 18.8 601L0 601Z" fill="#0f5042"></path><path d="M0 482L18.8 489.3C37.7 496.7 75.3 511.3 112.8 516C150.3 520.7 187.7 515.3 225.2 511.3C262.7 507.3 300.3 504.7 337.8 501.8C375.3 499 412.7 496 450.2 493.7C487.7 491.3 525.3 489.7 562.8 493.3C600.3 497 637.7 506 675.2 510.8C712.7 515.7 750.3 516.3 787.8 516.2C825.3 516 862.7 515 881.3 514.5L900 514L900 601L881.3 601C862.7 601 825.3 601 787.8 601C750.3 601 712.7 601 675.2 601C637.7 601 600.3 601 562.8 601C525.3 601 487.7 601 450.2 601C412.7 601 375.3 601 337.8 601C300.3 601 262.7 601 225.2 601C187.7 601 150.3 601 112.8 601C75.3 601 37.7 601 18.8 601L0 601Z" fill="#09715b"></path><path d="M0 539L18.8 539.8C37.7 540.7 75.3 542.3 112.8 541.2C150.3 540 187.7 536 225.2 535.2C262.7 534.3 300.3 536.7 337.8 540.5C375.3 544.3 412.7 549.7 450.2 550.8C487.7 552 525.3 549 562.8 544.5C600.3 540 637.7 534 675.2 536C712.7 538 750.3 548 787.8 552.5C825.3 557 862.7 556 881.3 555.5L900 555L900 601L881.3 601C862.7 601 825.3 601 787.8 601C750.3 601 712.7 601 675.2 601C637.7 601 600.3 601 562.8 601C525.3 601 487.7 601 450.2 601C412.7 601 375.3 601 337.8 601C300.3 601 262.7 601 225.2 601C187.7 601 150.3 601 112.8 601C75.3 601 37.7 601 18.8 601L0 601Z" fill="#009473"></path></svg>