<svg id="visual" viewBox="0 0 900 600" width="900" height="600" xmlns="http://www.w3.org/2000/svg" xmlns:xlink="http://www.w3.org/1999/xlink" version="1.1"><rect x="0" y="0" width="900" height="600" fill="#001220"></rect><path d="M0 157L18.8 156.5C37.7 156 75.3 155 112.8 160.2C150.3 165.3 187.7 176.7 225.2 177.8C262.7 179 300.3 170 337.8 169.8C375.3 169.7 412.7 178.3 450.2 192.7C487.7 207 525.3 227 562.8 232.5C600.3 238 637.7 229 675.2 216.5C712.7 204 750.3 188 787.8 181.7C825.3 175.3 862.7 178.7 881.3 180.3L900 182L900 0L881.3 0C862.7 0 825.3 0 787.8 0C750.3 0 712.7 0 675.2 0C637.7 0 600.3 0 562.8 0C525.3 0 487.7 0 450.2 0C412.7 0 375.3 0 337.8 0C300.3 0 262.7 0 225.2 0C187.7 0 150.3 0 112.8 0C75.3 0 37.7 0 18.8 0L0 0Z" fill="#7d1b44"></path><path d="M0 182L18.8 184C37.7 186 75.3 190 112.8 188.2C150.3 186.3 187.7 178.7 225.2 178.2C262.7 177.7 300.3 184.3 337.8 183.2C375.3 182 412.7 173 450.2 174.2C487.7 175.3 525.3 186.7 562.8 190.3C600.3 194 637.7 190 675.2 182.5C712.7 175 750.3 164 787.8 163.2C825.3 162.3 862.7 171.7 881.3 176.3L900 181L900 0L881.3 0C862.7 0 825.3 0 787.8 0C750.3 0 712.7 0 675.2 0C637.7 0 600.3 0 562.8 0C525.3 0 487.7 0 450.2 0C412.7 0 375.3 0 337.8 0C300.3 0 262.7 0 225.2 0C187.7 0 150.3 0 112.8 0C75.3 0 37.7 0 18.8 0L0 0Z" fill="#942648"></path><path d="M0 137L18.8 137.3C37.7 137.7 75.3 138.3 112.8 141.8C150.3 145.3 187.7 151.7 225.2 151C262.7 150.3 300.3 142.7 337.8 138.2C375.3 133.7 412.7 132.3 450.2 135C487.7 137.7 525.3 144.3 562.8 145.5C600.3 146.7 637.7 142.3 675.2 140.5C712.7 138.7 750.3 139.3 787.8 131.5C825.3 123.7 862.7 107.3 881.3 99.2L900 91L900 0L881.3 0C862.7 0 825.3 0 787.8 0C750.3 0 712.7 0 675.2 0C637.7 0 600.3 0 562.8 0C525.3 0 487.7 0 450.2 0C412.7 0 375.3 0 337.8 0C300.3 0 262.7 0 225.2 0C187.7 0 150.3 0 112.8 0C75.3 0 37.7 0 18.8 0L0 0Z" fill="#ab334a"></path><path d="M0 80L18.8 81.3C37.7 82.7 75.3 85.3 112.8 91.3C150.3 97.3 187.7 106.7 225.2 104.2C262.7 101.7 300.3 87.3 337.8 84.2C375.3 81 412.7 89 450.2 95C487.7 101 525.3 105 562.8 99.3C600.3 93.7 637.7 78.3 675.2 75.8C712.7 73.3 750.3 83.7 787.8 87.3C825.3 91 862.7 88 881.3 86.5L900 85L900 0L881.3 0C862.7 0 825.3 0 787.8 0C750.3 0 712.7 0 675.2 0C637.7 0 600.3 0 562.8 0C525.3 0 487.7 0 450.2 0C412.7 0 375.3 0 337.8 0C300.3 0 262.7 0 225.2 0C187.7 0 150.3 0 112.8 0C75.3 0 37.7 0 18.8 0L0 0Z" fill="#c1424b"></path><path d="M0 59L18.8 54C37.7 49 75.3 39 112.8 40.7C150.3 42.3 187.7 55.7 225.2 62.3C262.7 69 300.3 69 337.8 68.7C375.3 68.3 412.7 67.7 450.2 61.7C487.7 55.7 525.3 44.3 562.8 38.5C600.3 32.7 637.7 32.3 675.2 34C712.7 35.7 750.3 39.3 787.8 42.7C825.3 46 862.7 49 881.3 50.5L900 52L900 0L881.3 0C862.7 0 825.3 0 787.8 0C750.3 0 712.7 0 675.2 0C637.7 0 600.3 0 562.8 0C525.3 0 487.7 0 450.2 0C412.7 0 375.3 0 337.8 0C300.3 0 262.7 0 225.2 0C187.7 0 150.3 0 112.8 0C75.3 0 37.7 0 18.8 0L0 0Z" fill="#d5534a"></path></svg>