<svg id="visual" viewBox="0 0 900 600" width="900" height="600" xmlns="http://www.w3.org/2000/svg" xmlns:xlink="http://www.w3.org/1999/xlink" version="1.1"><rect x="0" y="0" width="900" height="600" fill="#13141a"></rect><path d="M0 167L21.5 172.7C43 178.3 86 189.7 128.8 194.7C171.7 199.7 214.3 198.3 257.2 202C300 205.7 343 214.3 385.8 211C428.7 207.7 471.3 192.3 514.2 196.7C557 201 600 225 642.8 235.2C685.7 245.3 728.3 241.7 771.2 240.2C814 238.7 857 239.3 878.5 239.7L900 240L900 0L878.5 0C857 0 814 0 771.2 0C728.3 0 685.7 0 642.8 0C600 0 557 0 514.2 0C471.3 0 428.7 0 385.8 0C343 0 300 0 257.2 0C214.3 0 171.7 0 128.8 0C86 0 43 0 21.5 0L0 0Z" fill="#fa7268"></path><path d="M0 176L21.5 175.8C43 175.7 86 175.3 128.8 175.7C171.7 176 214.3 177 257.2 178.7C300 180.3 343 182.7 385.8 178.8C428.7 175 471.3 165 514.2 167.3C557 169.7 600 184.3 642.8 186.3C685.7 188.3 728.3 177.7 771.2 168.2C814 158.7 857 150.3 878.5 146.2L900 142L900 0L878.5 0C857 0 814 0 771.2 0C728.3 0 685.7 0 642.8 0C600 0 557 0 514.2 0C471.3 0 428.7 0 385.8 0C343 0 300 0 257.2 0C214.3 0 171.7 0 128.8 0C86 0 43 0 21.5 0L0 0Z" fill="#eb6567"></path><path d="M0 140L21.5 142.5C43 145 86 150 128.8 145.5C171.7 141 214.3 127 257.2 123.8C300 120.7 343 128.3 385.8 129.3C428.7 130.3 471.3 124.7 514.2 122.2C557 119.7 600 120.3 642.8 129C685.7 137.7 728.3 154.3 771.2 164.2C814 174 857 177 878.5 178.5L900 180L900 0L878.5 0C857 0 814 0 771.2 0C728.3 0 685.7 0 642.8 0C600 0 557 0 514.2 0C471.3 0 428.7 0 385.8 0C343 0 300 0 257.2 0C214.3 0 171.7 0 128.8 0C86 0 43 0 21.5 0L0 0Z" fill="#db5865"></path><path d="M0 115L21.5 111C43 107 86 99 128.8 105C171.7 111 214.3 131 257.2 132C300 133 343 115 385.8 108C428.7 101 471.3 105 514.2 104.3C557 103.7 600 98.3 642.8 104.3C685.7 110.3 728.3 127.7 771.2 130C814 132.3 857 119.7 878.5 113.3L900 107L900 0L878.5 0C857 0 814 0 771.2 0C728.3 0 685.7 0 642.8 0C600 0 557 0 514.2 0C471.3 0 428.7 0 385.8 0C343 0 300 0 257.2 0C214.3 0 171.7 0 128.8 0C86 0 43 0 21.5 0L0 0Z" fill="#cb4c63"></path><path d="M0 105L21.5 104C43 103 86 101 128.8 100.8C171.7 100.7 214.3 102.3 257.2 104C300 105.7 343 107.3 385.8 101.2C428.7 95 471.3 81 514.2 77.2C557 73.3 600 79.7 642.8 85.7C685.7 91.7 728.3 97.3 771.2 94.3C814 91.3 857 79.7 878.5 73.8L900 68L900 0L878.5 0C857 0 814 0 771.2 0C728.3 0 685.7 0 642.8 0C600 0 557 0 514.2 0C471.3 0 428.7 0 385.8 0C343 0 300 0 257.2 0C214.3 0 171.7 0 128.8 0C86 0 43 0 21.5 0L0 0Z" fill="#ba4160"></path><path d="M0 60L21.5 60.3C43 60.7 86 61.3 128.8 59C171.7 56.7 214.3 51.3 257.2 54.5C300 57.7 343 69.3 385.8 69.7C428.7 70 471.3 59 514.2 55.2C557 51.3 600 54.7 642.8 53.8C685.7 53 728.3 48 771.2 52.5C814 57 857 71 878.5 78L900 85L900 0L878.5 0C857 0 814 0 771.2 0C728.3 0 685.7 0 642.8 0C600 0 557 0 514.2 0C471.3 0 428.7 0 385.8 0C343 0 300 0 257.2 0C214.3 0 171.7 0 128.8 0C86 0 43 0 21.5 0L0 0Z" fill="#a9375d"></path><path d="M0 45L21.5 42.8C43 40.7 86 36.3 128.8 33.7C171.7 31 214.3 30 257.2 32.8C300 35.7 343 42.3 385.8 44.5C428.7 46.7 471.3 44.3 514.2 39.2C557 34 600 26 642.8 22.5C685.7 19 728.3 20 771.2 21.7C814 23.3 857 25.7 878.5 26.8L900 28L900 0L878.5 0C857 0 814 0 771.2 0C728.3 0 685.7 0 642.8 0C600 0 557 0 514.2 0C471.3 0 428.7 0 385.8 0C343 0 300 0 257.2 0C214.3 0 171.7 0 128.8 0C86 0 43 0 21.5 0L0 0Z" fill="#972d59"></path></svg>