<?xml version="1.0" standalone="no"?>
<svg xmlns:xlink="http://www.w3.org/1999/xlink" id="wave" style="transform:rotate(0deg); transition: 0.3s" viewBox="0 0 1440 270" version="1.1" xmlns="http://www.w3.org/2000/svg"><defs><linearGradient id="sw-gradient-0" x1="0" x2="0" y1="1" y2="0"><stop stop-color="rgba(243, 106, 62, 1)" offset="0%"/><stop stop-color="rgba(255, 179, 11, 1)" offset="100%"/></linearGradient></defs><path style="transform:translate(0, 0px); opacity:1" fill="url(#sw-gradient-0)" d="M0,135L34.3,112.5C68.6,90,137,45,206,49.5C274.3,54,343,108,411,117C480,126,549,90,617,63C685.7,36,754,18,823,36C891.4,54,960,108,1029,108C1097.1,108,1166,54,1234,67.5C1302.9,81,1371,162,1440,193.5C1508.6,225,1577,207,1646,180C1714.3,153,1783,117,1851,85.5C1920,54,1989,27,2057,45C2125.7,63,2194,126,2263,144C2331.4,162,2400,135,2469,121.5C2537.1,108,2606,108,2674,94.5C2742.9,81,2811,54,2880,40.5C2948.6,27,3017,27,3086,58.5C3154.3,90,3223,153,3291,166.5C3360,180,3429,144,3497,108C3565.7,72,3634,36,3703,31.5C3771.4,27,3840,54,3909,85.5C3977.1,117,4046,153,4114,180C4182.9,207,4251,225,4320,211.5C4388.6,198,4457,153,4526,144C4594.3,135,4663,162,4731,153C4800,144,4869,99,4903,76.5L4937.1,54L4937.1,270L4902.9,270C4868.6,270,4800,270,4731,270C4662.9,270,4594,270,4526,270C4457.1,270,4389,270,4320,270C4251.4,270,4183,270,4114,270C4045.7,270,3977,270,3909,270C3840,270,3771,270,3703,270C3634.3,270,3566,270,3497,270C3428.6,270,3360,270,3291,270C3222.9,270,3154,270,3086,270C3017.1,270,2949,270,2880,270C2811.4,270,2743,270,2674,270C2605.7,270,2537,270,2469,270C2400,270,2331,270,2263,270C2194.3,270,2126,270,2057,270C1988.6,270,1920,270,1851,270C1782.9,270,1714,270,1646,270C1577.1,270,1509,270,1440,270C1371.4,270,1303,270,1234,270C1165.7,270,1097,270,1029,270C960,270,891,270,823,270C754.3,270,686,270,617,270C548.6,270,480,270,411,270C342.9,270,274,270,206,270C137.1,270,69,270,34,270L0,270Z"/><defs><linearGradient id="sw-gradient-1" x1="0" x2="0" y1="1" y2="0"><stop stop-color="rgba(121.31, 38.594, 12.028, 1)" offset="0%"/><stop stop-color="rgba(255, 179, 11, 1)" offset="100%"/></linearGradient></defs><path style="transform:translate(0, 50px); opacity:0.9" fill="url(#sw-gradient-1)" d="M0,0L34.3,9C68.6,18,137,36,206,54C274.3,72,343,90,411,121.5C480,153,549,198,617,198C685.7,198,754,153,823,117C891.4,81,960,54,1029,40.5C1097.1,27,1166,27,1234,31.5C1302.9,36,1371,45,1440,63C1508.6,81,1577,108,1646,117C1714.3,126,1783,117,1851,99C1920,81,1989,54,2057,63C2125.7,72,2194,117,2263,144C2331.4,171,2400,180,2469,189C2537.1,198,2606,207,2674,202.5C2742.9,198,2811,180,2880,184.5C2948.6,189,3017,216,3086,193.5C3154.3,171,3223,99,3291,94.5C3360,90,3429,153,3497,157.5C3565.7,162,3634,108,3703,72C3771.4,36,3840,18,3909,40.5C3977.1,63,4046,126,4114,144C4182.9,162,4251,135,4320,121.5C4388.6,108,4457,108,4526,126C4594.3,144,4663,180,4731,198C4800,216,4869,216,4903,216L4937.1,216L4937.1,270L4902.9,270C4868.6,270,4800,270,4731,270C4662.9,270,4594,270,4526,270C4457.1,270,4389,270,4320,270C4251.4,270,4183,270,4114,270C4045.7,270,3977,270,3909,270C3840,270,3771,270,3703,270C3634.3,270,3566,270,3497,270C3428.6,270,3360,270,3291,270C3222.9,270,3154,270,3086,270C3017.1,270,2949,270,2880,270C2811.4,270,2743,270,2674,270C2605.7,270,2537,270,2469,270C2400,270,2331,270,2263,270C2194.3,270,2126,270,2057,270C1988.6,270,1920,270,1851,270C1782.9,270,1714,270,1646,270C1577.1,270,1509,270,1440,270C1371.4,270,1303,270,1234,270C1165.7,270,1097,270,1029,270C960,270,891,270,823,270C754.3,270,686,270,617,270C548.6,270,480,270,411,270C342.9,270,274,270,206,270C137.1,270,69,270,34,270L0,270Z"/></svg>